<?xml version="1.0" encoding="utf-8"?>
<!-- Generator: Adobe Illustrator 19.0.0, SVG Export Plug-In . SVG Version: 6.00 Build 0)  -->
<svg version="1.1" id="layer" xmlns="http://www.w3.org/2000/svg" xmlns:xlink="http://www.w3.org/1999/xlink" x="0px" y="0px"
	 viewBox="-153 -46 652 652" style="enable-background:new -153 -46 652 652;" xml:space="preserve">
<style type="text/css">
	.st0{fill:#fff;}
</style>
<path class="st0" d="M97.4,341.8l-5.7-0.6c-9.9-1-19.6-3.2-29-6.6c-1.1-0.3-1.8-1.4-1.7-2.5c0-41,0-82,0-123v-1.8h19v42.2l2.9-1
	c9.2-3.5,19-5.1,28.8-4.7c15.7,0.7,27.4,9.1,33,23.8c2.4,6.7,3.7,13.8,3.7,20.9c0.3,8.6-0.7,17.3-2.9,25.7
	c-4.1,14.9-14.1,23.6-29.1,26.5c-2.3,0.4-4.7,0.6-7,0.9c-0.4,0.1-0.7,0.2-1,0.3H97.4z M80,292.8c0,9.7,0,19.4,0,29.1
	c-0.1,1,0.5,1.9,1.5,2.1c5.7,2.1,11.6,3.4,17.7,3.8c4.3,0.4,8.6,0.2,12.7-0.8c8-2.1,12.7-7.5,14.8-15.2c3-11.1,3.6-22.8,1.6-34.1
	c-0.6-4.8-2.6-9.3-5.7-13c-4.8-5.4-11.1-7.3-18.1-7.4c-7.9-0.1-15.7,1.4-23.1,4.3c-0.9,0.2-1.6,1.1-1.4,2.1
	C80.1,273.4,80,283.1,80,292.8 M418,341.8l-5.7-0.6c-9.9-1-19.6-3.2-29-6.6c-1.1-0.3-1.9-1.3-1.7-2.5c0-41,0-82.1,0-123.1v-1.7h18.9
	v42.2c1.3-0.5,2.4-0.8,3.4-1.2c9-3.4,18.6-4.9,28.2-4.5c16,0.7,27.7,9.3,33.2,24.3c3.1,8.3,3.7,16.9,3.5,25.7
	c-0.1,7.6-1.3,15.2-3.5,22.5c-4.4,13.3-13.6,21-27,24c-2.8,0.6-5.7,0.8-8.5,1.3c-0.4,0.1-0.8,0.2-1.2,0.3L418,341.8z M400.7,292.8
	c0,9.8,0,19.6,0,29.4c0,0.8,0.1,1.4,1,1.7c8.1,3.1,16.7,4.4,25.3,4c5.1-0.3,9.8-1.7,13.8-5.1c3.7-3.2,5.8-7.4,6.9-12
	c2.7-10.6,3.2-21.6,1.4-32.4c-0.6-4.8-2.4-9.3-5.4-13c-4.8-5.8-11.3-7.9-18.6-8c-8-0.1-15.8,1.4-23.2,4.3c-0.9,0.2-1.5,1.1-1.3,2
	C400.6,273.4,400.6,283.1,400.7,292.8 M-131,215.1c0,0,29.8-0.1,43.8,0c6.6-0.1,13.2,0.9,19.6,2.7c11.5,3.6,18.3,11.9,19.7,23.9
	c0.8,6.2,0.5,12.5-0.7,18.6c-2.3,11-9.2,17.8-19.6,21.4c-5.8,1.9-11.9,2.9-18.1,2.9c-7.9,0.1-15.9,0-23.8,0h-1.9v54.8h-19V215.1z
	 M-112,270.9c0.4,0,0.6,0.1,0.9,0.1c7.3,0,14.6,0.1,21.9-0.1c3.1-0.1,6.1-0.5,9.1-1.2c6.2-1.4,10.8-4.8,12.4-11.2
	c1.4-5.2,1.6-10.7,0.6-16c-1.2-6.3-4.8-10.6-11.1-12.1c-3.8-0.9-7.6-1.4-11.5-1.6c-6.9-0.3-13.8-0.1-20.8-0.1c-0.5,0-1,0-1.6,0.1
	L-112,270.9z M-1.8,341.8c-2.3-0.3-4.6-0.6-7-0.9c-5.5-0.7-10.8-2.6-15.5-5.4c-7.4-4.6-11.2-11.4-12.1-19.9
	c-0.2-2.4-0.3-4.9-0.3-7.3c0-20.2,0-40.4,0-60.5v-1.8h19v1.9c0,18.1,0,36.2,0,54.4c-0.1,4.5,0.5,9,1.7,13.4
	c2.2,7.2,7.2,11.3,14.5,12.1c9,1,18,0.1,26.6-2.4c1-0.1,1.8-1.1,1.6-2.1c0,0,0,0,0-0.1c0-25.1,0-50.2,0-75.3v-1.9h19v1.9
	c0,28.5,0,57.1,0,85.6c0.2,1.1-0.5,2.1-1.6,2.3c-0.1,0-0.1,0-0.2,0c-11.1,3.1-22.4,5-33.8,5.8c-0.4,0.1-0.7,0.1-1.1,0.2L-1.8,341.8z
	 M318.8,341.8c-2.3-0.3-4.6-0.6-7-0.9c-5.4-0.7-10.6-2.5-15.3-5.2c-7.5-4.5-11.4-11.3-12.3-19.9c-0.2-2.2-0.3-4.5-0.3-6.8
	c0-20.4,0-40.9,0-61.3v-1.8h19v1.8c0,18.5,0,36.9,0,55.4c-0.1,4.3,0.6,8.6,1.9,12.8c2.3,7.1,7.3,10.9,14.5,11.8
	c8.8,0.9,17.6,0.1,26.1-2.3c1.3-0.2,2.2-1.3,2.1-2.6c0,0,0-0.1,0-0.1c-0.1-24.9-0.1-49.9,0-74.8v-1.9h18.9c0,0.5,0.1,1,0.1,1.6
	c0,28.7,0,57.5,0,86.2c0.2,0.9-0.5,1.8-1.4,2c0,0-0.1,0-0.1,0c-11.1,3.1-22.5,5.1-34,5.9c-0.4,0.1-0.8,0.1-1.2,0.3L318.8,341.8z
	 M265.7,339.5h-17.6c-3.3,0-6.6,0-10,0c-1,0.1-1.9-0.4-2.2-1.3c-7.7-14.9-15.4-29.8-23.2-44.7l-31.7-61c-0.2-0.4-0.5-0.7-0.9-1v108
	h-16.6V215.1c0.4,0,0.9-0.1,1.4-0.1c8.6,0,17.3,0,25.9,0c0.9-0.1,1.7,0.4,2,1.2c18.4,35.4,36.8,70.9,55.2,106.3
	c0.2,0.4,0.5,0.8,0.9,1V215.2h16.7L265.7,339.5z"/>
</svg>
